<?xml version="1.0" encoding="UTF-8" standalone="no"?>
<!-- Created with Inkscape (http://www.inkscape.org/) -->

<svg
   width="297mm"
   height="210mm"
   viewBox="0 0 297 210"
   version="1.1"
   id="svg1"
   xml:space="preserve"
   inkscape:version="1.3.1 (9b9bdc1480, 2023-11-25, custom)"
   sodipodi:docname="CSD.svg"
   xmlns:inkscape="http://www.inkscape.org/namespaces/inkscape"
   xmlns:sodipodi="http://sodipodi.sourceforge.net/DTD/sodipodi-0.dtd"
   xmlns="http://www.w3.org/2000/svg"
   xmlns:svg="http://www.w3.org/2000/svg"><sodipodi:namedview
     id="namedview1"
     pagecolor="#ffffff"
     bordercolor="#999999"
     borderopacity="1"
     inkscape:showpageshadow="0"
     inkscape:pageopacity="0"
     inkscape:pagecheckerboard="0"
     inkscape:deskcolor="#d1d1d1"
     inkscape:document-units="mm"
     inkscape:zoom="1.0280428"
     inkscape:cx="528.18813"
     inkscape:cy="392.00703"
     inkscape:window-width="1850"
     inkscape:window-height="1016"
     inkscape:window-x="70"
     inkscape:window-y="27"
     inkscape:window-maximized="1"
     inkscape:current-layer="layer1"
     showgrid="false" /><defs
     id="defs1"><rect
       x="178.0886"
       y="241.86059"
       width="759.07184"
       height="320.31653"
       id="rect2" /><rect
       x="321.69348"
       y="275.4209"
       width="543.98234"
       height="173.91855"
       id="rect1" /><style
       id="style1">.cls-1{fill:#9c0a4b;}.cls-2{fill:#f48120;}</style></defs><g
     inkscape:label="Calque 1"
     inkscape:groupmode="layer"
     id="layer1"><text
       xml:space="preserve"
       transform="matrix(0.34089726,0,0,0.34089726,-53.845943,13.054184)"
       id="text1"
       style="font-style:normal;font-weight:normal;font-size:57.9516px;line-height:1.25;font-family:sans-serif;letter-spacing:0px;word-spacing:0px;white-space:pre;shape-inside:url(#rect1);fill:#971452;fill-opacity:1;stroke:none"
       x="180.83984"
       y="0"><tspan
         x="332.3523"
         y="329.46129"
         id="tspan3"><tspan
           style="font-weight:bold;font-family:Ubuntu;-inkscape-font-specification:'Ubuntu Bold';text-align:center;text-anchor:middle"
           id="tspan2">Solutions Digitales</tspan></tspan></text><text
       xml:space="preserve"
       transform="scale(0.26458333)"
       id="text2"
       style="fill:black;fill-opacity:1;line-height:1.25;stroke:none;font-family:sans-serif;font-style:normal;font-weight:normal;font-size:40px;letter-spacing:0px;word-spacing:0px;white-space:pre;shape-inside:url(#rect2)" /><g
       id="Grey"
       transform="matrix(0.45218337,0,0,0.45218337,33.808405,49.278021)"><path
         class="cls-1"
         d="m 403,80.48 v 0 m -2.07,12.77 -17.84,-0.34 a 5.45,5.45 0 0 0 -5.44,4.32 l -0.93,4.41 c 0,0 18.91,0.17 28.81,0.37 11.59,0.23 21.36,-3.64 22.95,-13.33 1.33,-8.14 -2.85,-14.08 -18.34,-16.66 -7.32,-1.22 -18.41,-2.46 -16.45,-8.7 1.62,-5.15 7.87,-4.94 14.73,-4.77 3.57,0.09 9.75,0.2 13.47,0.27 a 4.07,4.07 0 0 0 4,-2.91 l 1.09,-3.72 a 0.8,0.8 0 0 0 -0.76,-1 c -3.44,0 -14.45,-0.18 -21.29,-0.18 -12.53,0 -20.88,2.77 -22.64,12.37 -1.29,6.92 3.23,13.78 19.71,17.09 8.86,1.78 14.34,2.84 13.14,7.86 -0.84,3.49 -5.33,5.09 -14.23,4.92 z"
         id="path1" /><path
         class="cls-1"
         d="m 290.59,55 a 1.5,1.5 0 0 0 -1.47,-1.74 h -45.39 a 1.25,1.25 0 0 0 -1.26,1.06 l -5.63,35.24 a 9.51,9.51 0 0 0 9.31,10.73 h 33.68 a 4.84,4.84 0 0 0 4.85,-3.94 l 0.33,-1.7 a 1.5,1.5 0 0 0 -1.47,-1.74 h -28.09 a 2.89,2.89 0 0 1 -2.82,-3.29 c 0.31,-1.79 1.19,-7.06 1.54,-9 h 28 A 4.84,4.84 0 0 0 287,76.58 l 0.33,-1.7 a 1.5,1.5 0 0 0 -1.47,-1.74 h -30.4 c 0.36,-2.08 1.25,-7.65 1.58,-9.53 a 8.27,8.27 0 0 0 0,-3 h 28.42 a 4.84,4.84 0 0 0 4.84,-3.94 l 0.33,-1.7 z"
         id="path2" /><path
         class="cls-1"
         d="m 169.88,100.34 h -14.13 c 0,0 4.07,-24.79 5.52,-33 1.62,-9.14 1.81,-14.19 11.14,-14.19 h 4.85 a 1.53,1.53 0 0 1 1.51,1.79 l -7.38,44.16 a 1.53,1.53 0 0 1 -1.51,1.28 z"
         id="path3" /><path
         class="cls-1"
         d="m 187.47,60.48 c -2.73,0 -1.44,-4.44 -0.67,-5.77 a 3.3,3.3 0 0 1 3,-1.61 h 44.75 a 1.5,1.5 0 0 1 1.45,1.74 v 0 l -0.33,1.7 a 4.84,4.84 0 0 1 -4.84,3.94 H 216.3 l -6.46,38.58 a 1.53,1.53 0 0 1 -1.51,1.28 H 194.2 c 0,0 4.08,-24.79 5.53,-33 0.46,-2.62 0.8,-4.9 1.28,-6.82 z"
         id="path4" /><path
         class="cls-1"
         d="M 146.78,60.12 148.73,57 A 64.71,64.71 0 0 0 116,51.43 C 94.21,53.37 78.22,65.7 79.15,79.72 c 0.81,12.27 12.29,23 36.64,23 13.94,0 23.58,-4.07 27.25,-5.93 a 4.21,4.21 0 0 0 2.15,-2.56 l 1.7,-7.16 a 0.81,0.81 0 0 0 -1.18,-0.94 c -4.23,2.42 -12,7.19 -27.59,7.55 -16.78,0.4 -24.58,-7.24 -24.53,-17 0.06,-9.47 9.58,-15.69 20.33,-17.24 11.31,-1.64 20.33,0.52 24.44,2.79 a 6.29,6.29 0 0 0 8.42,-2.11 z"
         id="path5" /><path
         class="cls-1"
         d="m 329.42,96.54 c -17,1.52 -31.57,-6.21 -32.56,-17.25 -0.99,-11.04 12,-21.22 29,-22.74 17,-1.52 31.58,6.21 32.56,17.25 0.98,11.04 -12,21.23 -29,22.74 z m 46.39,-23.49 c -1.24,-14 -19.94,-23.76 -41.75,-21.82 -21.81,1.94 -38.47,14.86 -37.23,28.86 1.24,14 19.94,23.76 41.75,21.82 21.81,-1.94 38.48,-14.91 37.23,-28.86 z"
         id="path6" /><path
         class="cls-2"
         d="m 334.12,93 c -14.25,1.27 -26.47,-5.22 -27.3,-14.5 -0.83,-9.28 10.06,-17.83 24.31,-19.1 14.25,-1.27 26.4,5.19 27.28,14.43 V 73.8 c -1,-11 -15.56,-18.76 -32.56,-17.25 -17,1.51 -30,11.7 -29,22.74 1,11.04 15.56,18.77 32.56,17.25 16,-1.42 28.45,-10.54 29,-20.83 -0.6,8.58 -11,16.14 -24.32,17.33 z"
         id="path7" /></g></g></svg>
